<svg width="99" height="100" xmlns="http://www.w3.org/2000/svg" xmlns:xlink="http://www.w3.org/1999/xlink" xml:space="preserve" overflow="hidden"><g transform="translate(-930 -524)"><g><g><g><g><path d="M49 82.8576 26.6778 74.9292 18.8854 27.4264 49 17.3882 79.1146 27.4264 71.3222 74.9632 49 82.8576ZM29.1278 72.9215 49 79.9653 68.8722 72.9215 76.0521 29.2639 49 20.2465 21.9479 29.2639 29.1278 72.9215ZM49 72.5813C45.9715 72.5813 43.1472 72.309 40.9694 71.7646 39.9146 71.5264 36.75 70.7438 36.75 68.566L36.75 49.3403C36.75 47.1625 39.9486 46.4139 40.9694 46.1417 43.1132 45.6313 45.9715 45.325 49 45.325 52.0285 45.325 54.8528 45.5972 57.0306 46.1417 58.0854 46.3799 61.25 47.1625 61.25 49.3403L61.25 68.566C61.25 70.7438 58.0514 71.4924 57.0306 71.7646 54.8528 72.275 52.0285 72.5813 49 72.5813ZM39.4722 68.3278C40.2208 68.9062 43.5556 69.859 49 69.859 54.4444 69.859 57.7792 68.9062 58.5278 68.3278L58.5278 64.925C57.9153 65.1292 57.3708 65.2653 57.0306 65.3674 54.8868 65.8778 52.0285 66.184 49 66.184 45.9715 66.184 43.1472 65.9118 40.9694 65.3674 40.6292 65.2993 40.0507 65.1632 39.4722 64.925L39.4722 68.3278ZM39.4722 61.8965C40.2208 62.475 43.5556 63.4278 49 63.4278 54.4444 63.4278 57.7792 62.475 58.5278 61.8965L58.5278 58.4938C57.9153 58.6979 57.3708 58.834 57.0306 58.9361 54.8868 59.4465 52.0285 59.7528 49 59.7528 45.9715 59.7528 43.1472 59.4806 40.9694 58.9361 40.6292 58.8681 40.0507 58.7319 39.4722 58.4938L39.4722 61.8965ZM39.4722 55.4993C40.2208 56.0778 43.5556 57.0306 49 57.0306 54.4444 57.0306 57.7792 56.0778 58.5278 55.4993L58.5278 52.0965C57.9153 52.3007 57.3708 52.4368 57.0306 52.5389 54.8868 53.0493 52.0285 53.3556 49 53.3556 45.9715 53.3556 43.1472 53.0833 40.9694 52.5389 40.6292 52.4708 40.0507 52.3347 39.4722 52.0965L39.4722 55.4993ZM39.9146 49.3403C41.1736 49.9188 44.3042 50.6333 49 50.6333 53.6958 50.6333 56.8264 49.9188 58.0854 49.3403 56.8264 48.7618 53.6958 48.0472 49 48.0472 44.3042 48.0813 41.1736 48.7958 39.9146 49.3403ZM68.7361 43.3174 59.8889 43.3174 59.8889 34.4701 62.6111 34.4701 62.6111 38.6556 68.4639 32.8028 70.4035 34.7424 64.5507 40.5951 68.7361 40.5951 68.7361 43.3174ZM38.1111 43.3174 29.2639 43.3174 29.2639 40.5951 33.4493 40.5951 27.5965 34.7424 29.5361 32.8028 35.3889 38.6556 35.3889 34.4701 38.1111 34.4701 38.1111 43.3174ZM50.3611 40.5951 47.6389 40.5951 47.6389 30.9313 44.5083 34.0618 42.5688 32.1222 49 25.725 55.3972 32.1222 53.4576 34.0618 50.3271 30.9313 50.3271 40.5951Z" fill="#312D2A" fill-rule="nonzero" fill-opacity="1" transform="matrix(1 0 0 1.0017 931 524.917)"/></g></g></g></g></g></svg>